<?xml version="1.0" encoding="utf-8"?>

<!DOCTYPE svg PUBLIC "-//W3C//DTD SVG 1.1//EN" "http://www.w3.org/Graphics/SVG/1.1/DTD/svg11.dtd">
<!-- Uploaded to: SVG Repo, www.svgrepo.com, Generator: SVG Repo Mixer Tools -->
<svg height="800px" width="800px" version="1.1" id="_x32_" xmlns="http://www.w3.org/2000/svg" xmlns:xlink="http://www.w3.org/1999/xlink" 
	 viewBox="0 0 512 512"  xml:space="preserve">
<style type="text/css">
	.st0{fill:#A8C9E6;}
</style>
<g>
	<path class="st0" d="M113.27,339.343h45.418c0-73.328,55.762-113.739,55.762-113.739C157.5,232.254,113.27,280.597,113.27,339.343z
		"/>
	<path class="st0" d="M256.004,143.266c16.238,0,29.406-13.167,29.406-29.398c0-16.239-13.168-29.406-29.406-29.406
		c-16.239,0-29.406,13.167-29.406,29.406C226.598,130.099,239.765,143.266,256.004,143.266z"/>
	<path class="st0" d="M481.223,365.985h-7.075l-0.183-2.816c-7.287-114.603-103.028-204.383-217.961-204.391
		C141.077,158.787,45.337,248.567,38.042,363.17l-0.184,2.816h-7.074C13.812,365.985,0,379.791,0,396.762
		c0,16.972,13.812,30.777,30.784,30.777h450.439c16.972,0,30.777-13.804,30.777-30.777C512,379.791,498.195,365.985,481.223,365.985
		z M61.964,365.23l0.25-3.24c3.577-46.085,23.57-89.494,56.305-122.243c36.73-36.716,85.564-56.943,137.485-56.95
		c51.921,0.007,100.748,20.234,137.492,56.95c32.727,32.756,52.72,76.165,56.29,122.243l0.25,3.24H61.964z"/>
</g>
</svg>